<svg width="64" height="64" viewBox="0 0 64 64" fill="none" xmlns="http://www.w3.org/2000/svg">
<path d="M32.0667 11.9334C36.7779 11.9334 41.2223 12.9449 45.4001 14.968C49.5779 16.9911 53.0667 19.9129 55.8667 23.7334C56.1779 24.1334 56.2783 24.4889 56.1681 24.8C56.0579 25.1111 55.8685 25.3778 55.6001 25.6C55.3316 25.8222 55.0205 25.9227 54.6667 25.9014C54.313 25.88 54.0019 25.6907 53.7334 25.3334C51.289 21.8667 48.145 19.2116 44.3014 17.368C40.4579 15.5245 36.3796 14.6018 32.0667 14.6C27.7539 14.5982 23.7094 15.5209 19.9334 17.368C16.1574 19.2151 13.0241 21.8702 10.5334 25.3334C10.2667 25.7334 9.95563 25.9556 9.60008 26C9.24452 26.0445 8.93341 25.9556 8.66674 25.7334C8.35563 25.5111 8.1663 25.2338 8.09874 24.9014C8.03119 24.5689 8.13163 24.224 8.40008 23.8667C11.1556 20.0889 14.6116 17.1556 18.7681 15.0667C22.9245 12.9778 27.3574 11.9334 32.0667 11.9334ZM32.0667 18.2C38.0667 18.2 43.2223 20.2 47.5334 24.2C51.8445 28.2 54.0001 33.1556 54.0001 39.0667C54.0001 41.2889 53.2116 43.1449 51.6347 44.6347C50.0579 46.1245 48.1352 46.8685 45.8667 46.8667C43.5983 46.8649 41.6543 46.1209 40.0347 44.6347C38.4152 43.1485 37.6036 41.2925 37.6001 39.0667C37.6001 37.6 37.0561 36.3662 35.9681 35.3654C34.8801 34.3645 33.5796 33.8649 32.0667 33.8667C30.5539 33.8685 29.2534 34.3689 28.1654 35.368C27.0774 36.3671 26.5334 37.6 26.5334 39.0667C26.5334 43.3778 27.8116 46.9778 30.3681 49.8667C32.9245 52.7556 36.2241 54.7778 40.2667 55.9334C40.6667 56.0667 40.9334 56.2889 41.0667 56.6C41.2001 56.9111 41.2223 57.2445 41.1334 57.6C41.0445 57.9111 40.8667 58.1778 40.6001 58.4C40.3334 58.6222 40.0001 58.6889 39.6001 58.6C34.9779 57.4445 31.2001 55.144 28.2667 51.6987C25.3334 48.2534 23.8667 44.0427 23.8667 39.0667C23.8667 36.8445 24.6667 34.9778 26.2667 33.4667C27.8667 31.9556 29.8001 31.2 32.0667 31.2C34.3334 31.2 36.2667 31.9556 37.8667 33.4667C39.4667 34.9778 40.2667 36.8445 40.2667 39.0667C40.2667 40.5334 40.8223 41.7671 41.9334 42.768C43.0445 43.7689 44.3556 44.2685 45.8667 44.2667C47.3779 44.2649 48.6667 43.7654 49.7334 42.768C50.8001 41.7707 51.3334 40.5369 51.3334 39.0667C51.3334 33.9111 49.4445 29.5778 45.6667 26.0667C41.889 22.5556 37.3779 20.8 32.1334 20.8C26.889 20.8 22.3779 22.5556 18.6001 26.0667C14.8223 29.5778 12.9334 33.8889 12.9334 39C12.9334 40.0667 13.0339 41.4 13.2347 43C13.4356 44.6 13.913 46.4667 14.6667 48.6C14.8001 49 14.7894 49.3556 14.6347 49.6667C14.4801 49.9778 14.2241 50.2 13.8667 50.3334C13.5094 50.4667 13.1654 50.456 12.8347 50.3014C12.5041 50.1467 12.2703 49.8907 12.1334 49.5334C11.4667 47.8 10.9894 46.0783 10.7014 44.368C10.4134 42.6578 10.2685 40.8907 10.2667 39.0667C10.2667 33.1556 12.4116 28.2 16.7014 24.2C20.9912 20.2 26.113 18.2 32.0667 18.2ZM32.0667 5.40002C34.9112 5.40002 37.689 5.74402 40.4001 6.43202C43.1112 7.12002 45.7334 8.10936 48.2667 9.40002C48.6667 9.62225 48.9005 9.88891 48.9681 10.2C49.0356 10.5111 49.0019 10.8222 48.8667 11.1334C48.7316 11.4445 48.5094 11.6889 48.2001 11.8667C47.8907 12.0445 47.513 12.0222 47.0667 11.8C44.7112 10.6 42.2774 9.67825 39.7654 9.03469C37.2534 8.39114 34.6872 8.06847 32.0667 8.06669C29.489 8.06669 26.9556 8.36714 24.4667 8.96802C21.9779 9.56891 19.6001 10.5129 17.3334 11.8C16.9779 12.0222 16.6223 12.0782 16.2667 11.968C15.9112 11.8578 15.6445 11.624 15.4667 11.2667C15.289 10.9094 15.2445 10.5876 15.3334 10.3014C15.4223 10.0151 15.6445 9.75914 16.0001 9.53336C18.489 8.20002 21.089 7.1778 23.8001 6.46669C26.5112 5.75558 29.2667 5.40002 32.0667 5.40002ZM32.0667 24.6667C36.2001 24.6667 39.7556 26.056 42.7334 28.8347C45.7112 31.6134 47.2001 35.024 47.2001 39.0667C47.2001 39.4667 47.0783 39.7894 46.8347 40.0347C46.5912 40.28 46.2685 40.4018 45.8667 40.4C45.5112 40.4 45.2001 40.2782 44.9334 40.0347C44.6667 39.7911 44.5334 39.4685 44.5334 39.0667C44.5334 35.7334 43.2996 32.9449 40.8321 30.7014C38.3645 28.4578 35.4427 27.3351 32.0667 27.3334C28.6907 27.3316 25.7912 28.4542 23.3681 30.7014C20.945 32.9485 19.7334 35.7369 19.7334 39.0667C19.7334 42.6667 20.3556 45.7227 21.6001 48.2347C22.8445 50.7467 24.6667 53.2685 27.0667 55.8C27.3334 56.0667 27.4667 56.3778 27.4667 56.7334C27.4667 57.0889 27.3334 57.4 27.0667 57.6667C26.8001 57.9334 26.489 58.0667 26.1334 58.0667C25.7779 58.0667 25.4667 57.9334 25.2001 57.6667C22.5779 54.9111 20.5672 52.1005 19.1681 49.2347C17.769 46.3689 17.0685 42.9796 17.0667 39.0667C17.0667 35.0222 18.5334 31.6107 21.4667 28.832C24.4001 26.0534 27.9334 24.6649 32.0667 24.6667ZM32.0001 37.7334C32.4001 37.7334 32.7227 37.8667 32.9681 38.1334C33.2134 38.4 33.3352 38.7111 33.3334 39.0667C33.3334 42.4 34.5334 45.1334 36.9334 47.2667C39.3334 49.4 42.1334 50.4667 45.3334 50.4667C45.6001 50.4667 45.9779 50.4445 46.4667 50.4C46.9556 50.3556 47.4667 50.2889 48.0001 50.2C48.4001 50.1111 48.745 50.1671 49.0347 50.368C49.3245 50.5689 49.513 50.8685 49.6001 51.2667C49.689 51.6223 49.6223 51.9334 49.4001 52.2C49.1779 52.4667 48.889 52.6445 48.5334 52.7334C47.7334 52.9556 47.0339 53.0782 46.4347 53.1014C45.8356 53.1245 45.4685 53.1351 45.3334 53.1334C41.3779 53.1334 37.9441 51.8 35.0321 49.1334C32.1201 46.4667 30.665 43.1111 30.6667 39.0667C30.6667 38.7111 30.7894 38.4 31.0347 38.1334C31.2801 37.8667 31.6019 37.7334 32.0001 37.7334Z" fill="white"/>
</svg>
